<svg height='100px' width='100px'  fill="#878787" xmlns="http://www.w3.org/2000/svg" xmlns:xlink="http://www.w3.org/1999/xlink" version="1.1" x="0px" y="0px" viewBox="0 0 100 100" enable-background="new 0 0 100 100" xml:space="preserve"><path d="M34.5,58c-14.337,0-26-11.663-26-26s11.663-26,26-26s26,11.663,26,26c0,1.104,0.895,2,2,2s2-0.896,2-2  c0-16.542-13.458-30-30-30s-30,13.458-30,30s13.458,30,30,30c1.104,0,2-0.895,2-2S35.604,58,34.5,58z M34.492,16  c-4.529,0-9.383,3.036-10,9.819l3.969,0.361C28.995,20.298,33.528,20,34.438,20c1.407,0,5.938,0.369,5.938,5.125  c0,2.509-1.464,3.729-3.648,5.51C34.732,32.261,32,34.285,32,38v2h4v-2c0-1.731,1.334-2.701,3.252-4.266  c2.227-1.814,5.244-4.073,5.244-8.609C44.496,19.667,40.474,16,34.492,16z M36,44h-4v4h4V44z M86.5,40h-36c-4.411,0-8.5,3.589-8.5,8  v34c0,4.412,4.089,8,8.5,8h11l5.4,7.199C67.277,97.703,67.871,98,68.5,98s1.223-0.297,1.6-0.801L75.5,90h11c4.412,0,7.5-3.588,7.5-8  V48C94,43.589,90.912,40,86.5,40z M90,82c0,2.205-1.295,4-3.5,4h-12c-0.629,0-1.223,0.297-1.6,0.801l-4.4,5.865l-4.4-5.865  C63.723,86.297,63.129,86,62.5,86h-12c-2.206,0-4.5-1.795-4.5-4V48c0-2.206,2.294-4,4.5-4h36c2.205,0,3.5,1.794,3.5,4V82z   M66.334,71.006l-8.42-8.42l-2.828,2.828l10,10C65.461,75.791,65.971,76,66.5,76c0.037,0,0.074-0.002,0.111-0.004  c0.566-0.031,1.096-0.303,1.451-0.746l16-20l-3.125-2.5L66.334,71.006z"></path></svg>